<?xml version="1.0" encoding="UTF-8" standalone="no"?>
<!DOCTYPE svg PUBLIC "-//W3C//DTD SVG 1.1//EN"
 "http://www.w3.org/Graphics/SVG/1.1/DTD/svg11.dtd">
<!-- Generated by graphviz version 2.47.0 (20210316.0004)
 -->
<!-- Title: dependencies Pages: 1 -->
<svg width="1030pt" height="211pt"
 viewBox="0.00 0.00 1030.00 211.00" xmlns="http://www.w3.org/2000/svg" xmlns:xlink="http://www.w3.org/1999/xlink">
<g id="graph0" class="graph" transform="scale(1 1) rotate(0) translate(4 207)">
<title>dependencies</title>
<polygon fill="white" stroke="transparent" points="-4,4 -4,-207 1026,-207 1026,4 -4,4"/>
<text text-anchor="start" x="490.01" y="-42.4" font-family="sans-serif" font-weight="bold" font-size="14.00">Legend</text>
<polygon fill="#ffffb3" stroke="transparent" points="277,-10 277,-30 297,-30 297,-10 277,-10"/>
<text text-anchor="start" x="300.63" y="-15.4" font-family="sans-serif" font-size="14.00"> &#160;Declarations</text>
<polygon fill="#8dd3c7" stroke="transparent" points="390,-10 390,-30 410,-30 410,-10 390,-10"/>
<text text-anchor="start" x="413.73" y="-15.4" font-family="sans-serif" font-size="14.00"> &#160;Module</text>
<polygon fill="#80b1d3" stroke="transparent" points="476,-10 476,-30 496,-30 496,-10 476,-10"/>
<text text-anchor="start" x="499.78" y="-15.4" font-family="sans-serif" font-size="14.00"> &#160;Bootstrap</text>
<polygon fill="#fdb462" stroke="transparent" points="573,-10 573,-30 593,-30 593,-10 573,-10"/>
<text text-anchor="start" x="596.67" y="-15.4" font-family="sans-serif" font-size="14.00"> &#160;Providers</text>
<polygon fill="#fb8072" stroke="transparent" points="669,-10 669,-30 689,-30 689,-10 669,-10"/>
<text text-anchor="start" x="692.73" y="-15.4" font-family="sans-serif" font-size="14.00"> &#160;Exports</text>
<g id="clust1" class="cluster">
<title>cluster_ClientesModule</title>
<polygon fill="none" stroke="black" stroke-dasharray="1,5" points="8,-70 8,-195 1014,-195 1014,-70 8,-70"/>
</g>
<g id="clust2" class="cluster">
<title>cluster_ClientesModule_declarations</title>
<polygon fill="none" stroke="black" points="190,-78 190,-130 1006,-130 1006,-78 190,-78"/>
</g>
<g id="clust8" class="cluster">
<title>cluster_ClientesModule_imports</title>
<polygon fill="none" stroke="black" points="16,-78 16,-130 182,-130 182,-78 16,-78"/>
</g>
<!-- ClienteComponent -->
<g id="node1" class="node">
<title>ClienteComponent</title>
<polygon fill="#ffffb3" stroke="black" points="997.77,-122 876.23,-122 876.23,-86 997.77,-86 997.77,-122"/>
<text text-anchor="middle" x="937" y="-99.8" font-family="Times,serif" font-size="14.00">ClienteComponent</text>
</g>
<!-- ClientesModule -->
<g id="node6" class="node">
<title>ClientesModule</title>
<polygon fill="#8dd3c7" stroke="black" points="573.93,-187 570.93,-191 549.93,-191 546.93,-187 468.07,-187 468.07,-151 573.93,-151 573.93,-187"/>
<text text-anchor="middle" x="521" y="-164.8" font-family="Times,serif" font-size="14.00">ClientesModule</text>
</g>
<!-- ClienteComponent&#45;&gt;ClientesModule -->
<g id="edge1" class="edge">
<title>ClienteComponent&#45;&gt;ClientesModule</title>
<path fill="none" stroke="black" d="M937,-122.28C937,-143.32 937,-175 937,-175 937,-175 584.11,-175 584.11,-175"/>
<polygon fill="black" stroke="black" points="584.11,-171.5 574.11,-175 584.11,-178.5 584.11,-171.5"/>
</g>
<!-- ClienteFichaComponent -->
<g id="node2" class="node">
<title>ClienteFichaComponent</title>
<polygon fill="#ffffb3" stroke="black" points="858.37,-122 705.63,-122 705.63,-86 858.37,-86 858.37,-122"/>
<text text-anchor="middle" x="782" y="-99.8" font-family="Times,serif" font-size="14.00">ClienteFichaComponent</text>
</g>
<!-- ClienteFichaComponent&#45;&gt;ClientesModule -->
<g id="edge2" class="edge">
<title>ClienteFichaComponent&#45;&gt;ClientesModule</title>
<path fill="none" stroke="black" d="M782,-122.02C782,-139.37 782,-163 782,-163 782,-163 583.82,-163 583.82,-163"/>
<polygon fill="black" stroke="black" points="583.82,-159.5 573.82,-163 583.82,-166.5 583.82,-159.5"/>
</g>
<!-- ClienteFormComponent -->
<g id="node3" class="node">
<title>ClienteFormComponent</title>
<polygon fill="#ffffb3" stroke="black" points="688.1,-122 535.9,-122 535.9,-86 688.1,-86 688.1,-122"/>
<text text-anchor="middle" x="612" y="-99.8" font-family="Times,serif" font-size="14.00">ClienteFormComponent</text>
</g>
<!-- ClienteFormComponent&#45;&gt;ClientesModule -->
<g id="edge3" class="edge">
<title>ClienteFormComponent&#45;&gt;ClientesModule</title>
<path fill="none" stroke="black" d="M554.83,-122.11C554.83,-122.11 554.83,-140.99 554.83,-140.99"/>
<polygon fill="black" stroke="black" points="551.33,-140.99 554.83,-150.99 558.33,-140.99 551.33,-140.99"/>
</g>
<!-- ClienteMascotasComponent -->
<g id="node4" class="node">
<title>ClienteMascotasComponent</title>
<polygon fill="#ffffb3" stroke="black" points="518.14,-122 343.86,-122 343.86,-86 518.14,-86 518.14,-122"/>
<text text-anchor="middle" x="431" y="-99.8" font-family="Times,serif" font-size="14.00">ClienteMascotasComponent</text>
</g>
<!-- ClienteMascotasComponent&#45;&gt;ClientesModule -->
<g id="edge4" class="edge">
<title>ClienteMascotasComponent&#45;&gt;ClientesModule</title>
<path fill="none" stroke="black" d="M493.3,-122.11C493.3,-122.11 493.3,-140.99 493.3,-140.99"/>
<polygon fill="black" stroke="black" points="489.8,-140.99 493.3,-150.99 496.8,-140.99 489.8,-140.99"/>
</g>
<!-- ClientesComponent -->
<g id="node5" class="node">
<title>ClientesComponent</title>
<polygon fill="#ffffb3" stroke="black" points="325.71,-122 198.29,-122 198.29,-86 325.71,-86 325.71,-122"/>
<text text-anchor="middle" x="262" y="-99.8" font-family="Times,serif" font-size="14.00">ClientesComponent</text>
</g>
<!-- ClientesComponent&#45;&gt;ClientesModule -->
<g id="edge5" class="edge">
<title>ClientesComponent&#45;&gt;ClientesModule</title>
<path fill="none" stroke="black" d="M262,-122.02C262,-139.37 262,-163 262,-163 262,-163 458.28,-163 458.28,-163"/>
<polygon fill="black" stroke="black" points="458.28,-166.5 468.28,-163 458.28,-159.5 458.28,-166.5"/>
</g>
<!-- ClientesRoutingModule -->
<g id="node7" class="node">
<title>ClientesRoutingModule</title>
<polygon fill="#8dd3c7" stroke="black" points="174.05,-122 171.05,-126 150.05,-126 147.05,-122 23.95,-122 23.95,-86 174.05,-86 174.05,-122"/>
<text text-anchor="middle" x="99" y="-99.8" font-family="Times,serif" font-size="14.00">ClientesRoutingModule</text>
</g>
<!-- ClientesRoutingModule&#45;&gt;ClientesModule -->
<g id="edge6" class="edge">
<title>ClientesRoutingModule&#45;&gt;ClientesModule</title>
<path fill="none" stroke="black" d="M99,-122.28C99,-143.32 99,-175 99,-175 99,-175 457.98,-175 457.98,-175"/>
<polygon fill="black" stroke="black" points="457.98,-178.5 467.98,-175 457.98,-171.5 457.98,-178.5"/>
</g>
</g>
</svg>
