<?xml version="1.0" encoding="UTF-8" standalone="no"?>
<!DOCTYPE svg PUBLIC "-//W3C//DTD SVG 1.1//EN"
 "http://www.w3.org/Graphics/SVG/1.1/DTD/svg11.dtd">
<!-- Generated by graphviz version 2.47.0 (20210316.0004)
 -->
<!-- Title: dependencies Pages: 1 -->
<svg width="896pt" height="211pt"
 viewBox="0.00 0.00 896.00 211.00" xmlns="http://www.w3.org/2000/svg" xmlns:xlink="http://www.w3.org/1999/xlink">
<g id="graph0" class="graph" transform="scale(1 1) rotate(0) translate(4 207)">
<title>dependencies</title>
<polygon fill="white" stroke="transparent" points="-4,4 -4,-207 892,-207 892,4 -4,4"/>
<text text-anchor="start" x="423.01" y="-42.4" font-family="sans-serif" font-weight="bold" font-size="14.00">Legend</text>
<polygon fill="#ffffb3" stroke="transparent" points="210,-10 210,-30 230,-30 230,-10 210,-10"/>
<text text-anchor="start" x="233.63" y="-15.4" font-family="sans-serif" font-size="14.00"> &#160;Declarations</text>
<polygon fill="#8dd3c7" stroke="transparent" points="323,-10 323,-30 343,-30 343,-10 323,-10"/>
<text text-anchor="start" x="346.73" y="-15.4" font-family="sans-serif" font-size="14.00"> &#160;Module</text>
<polygon fill="#80b1d3" stroke="transparent" points="409,-10 409,-30 429,-30 429,-10 409,-10"/>
<text text-anchor="start" x="432.78" y="-15.4" font-family="sans-serif" font-size="14.00"> &#160;Bootstrap</text>
<polygon fill="#fdb462" stroke="transparent" points="506,-10 506,-30 526,-30 526,-10 506,-10"/>
<text text-anchor="start" x="529.67" y="-15.4" font-family="sans-serif" font-size="14.00"> &#160;Providers</text>
<polygon fill="#fb8072" stroke="transparent" points="602,-10 602,-30 622,-30 622,-10 602,-10"/>
<text text-anchor="start" x="625.73" y="-15.4" font-family="sans-serif" font-size="14.00"> &#160;Exports</text>
<g id="clust1" class="cluster">
<title>cluster_AdministracionModule</title>
<polygon fill="none" stroke="black" stroke-dasharray="1,5" points="8,-70 8,-195 880,-195 880,-70 8,-70"/>
</g>
<g id="clust2" class="cluster">
<title>cluster_AdministracionModule_declarations</title>
<polygon fill="none" stroke="black" points="232,-78 232,-130 872,-130 872,-78 232,-78"/>
</g>
<g id="clust7" class="cluster">
<title>cluster_AdministracionModule_imports</title>
<polygon fill="none" stroke="black" points="16,-78 16,-130 224,-130 224,-78 16,-78"/>
</g>
<!-- UsuarioComponent -->
<g id="node1" class="node">
<title>UsuarioComponent</title>
<polygon fill="#ffffb3" stroke="black" points="863.65,-122 738.35,-122 738.35,-86 863.65,-86 863.65,-122"/>
<text text-anchor="middle" x="801" y="-99.8" font-family="Times,serif" font-size="14.00">UsuarioComponent</text>
</g>
<!-- AdministracionModule -->
<g id="node5" class="node">
<title>AdministracionModule</title>
<polygon fill="#8dd3c7" stroke="black" points="541.14,-187 538.14,-191 517.14,-191 514.14,-187 394.86,-187 394.86,-151 541.14,-151 541.14,-187"/>
<text text-anchor="middle" x="468" y="-164.8" font-family="Times,serif" font-size="14.00">AdministracionModule</text>
</g>
<!-- UsuarioComponent&#45;&gt;AdministracionModule -->
<g id="edge1" class="edge">
<title>UsuarioComponent&#45;&gt;AdministracionModule</title>
<path fill="none" stroke="black" d="M801,-122.28C801,-143.32 801,-175 801,-175 801,-175 551.49,-175 551.49,-175"/>
<polygon fill="black" stroke="black" points="551.49,-171.5 541.49,-175 551.49,-178.5 551.49,-171.5"/>
</g>
<!-- UsuarioFichaComponent -->
<g id="node2" class="node">
<title>UsuarioFichaComponent</title>
<polygon fill="#ffffb3" stroke="black" points="720.25,-122 563.75,-122 563.75,-86 720.25,-86 720.25,-122"/>
<text text-anchor="middle" x="642" y="-99.8" font-family="Times,serif" font-size="14.00">UsuarioFichaComponent</text>
</g>
<!-- UsuarioFichaComponent&#45;&gt;AdministracionModule -->
<g id="edge2" class="edge">
<title>UsuarioFichaComponent&#45;&gt;AdministracionModule</title>
<path fill="none" stroke="black" d="M642,-122.02C642,-139.37 642,-163 642,-163 642,-163 551.29,-163 551.29,-163"/>
<polygon fill="black" stroke="black" points="551.29,-159.5 541.29,-163 551.29,-166.5 551.29,-159.5"/>
</g>
<!-- UsuarioFormComponent -->
<g id="node3" class="node">
<title>UsuarioFormComponent</title>
<polygon fill="#ffffb3" stroke="black" points="545.98,-122 390.02,-122 390.02,-86 545.98,-86 545.98,-122"/>
<text text-anchor="middle" x="468" y="-99.8" font-family="Times,serif" font-size="14.00">UsuarioFormComponent</text>
</g>
<!-- UsuarioFormComponent&#45;&gt;AdministracionModule -->
<g id="edge3" class="edge">
<title>UsuarioFormComponent&#45;&gt;AdministracionModule</title>
<path fill="none" stroke="black" d="M468,-122.11C468,-122.11 468,-140.99 468,-140.99"/>
<polygon fill="black" stroke="black" points="464.5,-140.99 468,-150.99 471.5,-140.99 464.5,-140.99"/>
</g>
<!-- UsuariosComponent -->
<g id="node4" class="node">
<title>UsuariosComponent</title>
<polygon fill="#ffffb3" stroke="black" points="371.59,-122 240.41,-122 240.41,-86 371.59,-86 371.59,-122"/>
<text text-anchor="middle" x="306" y="-99.8" font-family="Times,serif" font-size="14.00">UsuariosComponent</text>
</g>
<!-- UsuariosComponent&#45;&gt;AdministracionModule -->
<g id="edge4" class="edge">
<title>UsuariosComponent&#45;&gt;AdministracionModule</title>
<path fill="none" stroke="black" d="M306,-122.02C306,-139.37 306,-163 306,-163 306,-163 384.58,-163 384.58,-163"/>
<polygon fill="black" stroke="black" points="384.58,-166.5 394.58,-163 384.58,-159.5 384.58,-166.5"/>
</g>
<!-- AdministracionRoutingModule -->
<g id="node6" class="node">
<title>AdministracionRoutingModule</title>
<polygon fill="#8dd3c7" stroke="black" points="215.76,-122 212.76,-126 191.76,-126 188.76,-122 24.24,-122 24.24,-86 215.76,-86 215.76,-122"/>
<text text-anchor="middle" x="120" y="-99.8" font-family="Times,serif" font-size="14.00">AdministracionRoutingModule</text>
</g>
<!-- AdministracionRoutingModule&#45;&gt;AdministracionModule -->
<g id="edge5" class="edge">
<title>AdministracionRoutingModule&#45;&gt;AdministracionModule</title>
<path fill="none" stroke="black" d="M120,-122.28C120,-143.32 120,-175 120,-175 120,-175 384.62,-175 384.62,-175"/>
<polygon fill="black" stroke="black" points="384.62,-178.5 394.62,-175 384.62,-171.5 384.62,-178.5"/>
</g>
</g>
</svg>
