<?xml version="1.0" encoding="UTF-8" standalone="no"?>
<!DOCTYPE svg PUBLIC "-//W3C//DTD SVG 1.1//EN"
 "http://www.w3.org/Graphics/SVG/1.1/DTD/svg11.dtd">
<!-- Generated by graphviz version 2.47.0 (20210316.0004)
 -->
<!-- Title: dependencies Pages: 1 -->
<svg width="1081pt" height="211pt"
 viewBox="0.00 0.00 1081.00 211.00" xmlns="http://www.w3.org/2000/svg" xmlns:xlink="http://www.w3.org/1999/xlink">
<g id="graph0" class="graph" transform="scale(1 1) rotate(0) translate(4 207)">
<title>dependencies</title>
<polygon fill="white" stroke="transparent" points="-4,4 -4,-207 1077,-207 1077,4 -4,4"/>
<text text-anchor="start" x="515.51" y="-42.4" font-family="sans-serif" font-weight="bold" font-size="14.00">Legend</text>
<polygon fill="#ffffb3" stroke="transparent" points="302.5,-10 302.5,-30 322.5,-30 322.5,-10 302.5,-10"/>
<text text-anchor="start" x="326.13" y="-15.4" font-family="sans-serif" font-size="14.00"> &#160;Declarations</text>
<polygon fill="#8dd3c7" stroke="transparent" points="415.5,-10 415.5,-30 435.5,-30 435.5,-10 415.5,-10"/>
<text text-anchor="start" x="439.23" y="-15.4" font-family="sans-serif" font-size="14.00"> &#160;Module</text>
<polygon fill="#80b1d3" stroke="transparent" points="501.5,-10 501.5,-30 521.5,-30 521.5,-10 501.5,-10"/>
<text text-anchor="start" x="525.28" y="-15.4" font-family="sans-serif" font-size="14.00"> &#160;Bootstrap</text>
<polygon fill="#fdb462" stroke="transparent" points="598.5,-10 598.5,-30 618.5,-30 618.5,-10 598.5,-10"/>
<text text-anchor="start" x="622.17" y="-15.4" font-family="sans-serif" font-size="14.00"> &#160;Providers</text>
<polygon fill="#fb8072" stroke="transparent" points="694.5,-10 694.5,-30 714.5,-30 714.5,-10 694.5,-10"/>
<text text-anchor="start" x="718.23" y="-15.4" font-family="sans-serif" font-size="14.00"> &#160;Exports</text>
<g id="clust1" class="cluster">
<title>cluster_PrestacionesModule</title>
<polygon fill="none" stroke="black" stroke-dasharray="1,5" points="8,-70 8,-195 1065,-195 1065,-70 8,-70"/>
</g>
<g id="clust2" class="cluster">
<title>cluster_PrestacionesModule_declarations</title>
<polygon fill="none" stroke="black" points="214,-78 214,-130 1057,-130 1057,-78 214,-78"/>
</g>
<g id="clust8" class="cluster">
<title>cluster_PrestacionesModule_imports</title>
<polygon fill="none" stroke="black" points="16,-78 16,-130 206,-130 206,-78 16,-78"/>
</g>
<!-- FacturaComponent -->
<g id="node1" class="node">
<title>FacturaComponent</title>
<polygon fill="#ffffb3" stroke="black" points="1048.81,-122 925.19,-122 925.19,-86 1048.81,-86 1048.81,-122"/>
<text text-anchor="middle" x="987" y="-99.8" font-family="Times,serif" font-size="14.00">FacturaComponent</text>
</g>
<!-- PrestacionesModule -->
<g id="node6" class="node">
<title>PrestacionesModule</title>
<polygon fill="#8dd3c7" stroke="black" points="635.52,-187 632.52,-191 611.52,-191 608.52,-187 506.48,-187 506.48,-151 635.52,-151 635.52,-187"/>
<text text-anchor="middle" x="571" y="-164.8" font-family="Times,serif" font-size="14.00">PrestacionesModule</text>
</g>
<!-- FacturaComponent&#45;&gt;PrestacionesModule -->
<g id="edge1" class="edge">
<title>FacturaComponent&#45;&gt;PrestacionesModule</title>
<path fill="none" stroke="black" d="M987,-122.28C987,-143.32 987,-175 987,-175 987,-175 645.54,-175 645.54,-175"/>
<polygon fill="black" stroke="black" points="645.54,-171.5 635.54,-175 645.54,-178.5 645.54,-171.5"/>
</g>
<!-- PrestacionComponent -->
<g id="node2" class="node">
<title>PrestacionComponent</title>
<polygon fill="#ffffb3" stroke="black" points="907.65,-122 768.35,-122 768.35,-86 907.65,-86 907.65,-122"/>
<text text-anchor="middle" x="838" y="-99.8" font-family="Times,serif" font-size="14.00">PrestacionComponent</text>
</g>
<!-- PrestacionComponent&#45;&gt;PrestacionesModule -->
<g id="edge2" class="edge">
<title>PrestacionComponent&#45;&gt;PrestacionesModule</title>
<path fill="none" stroke="black" d="M838,-122.02C838,-139.37 838,-163 838,-163 838,-163 645.63,-163 645.63,-163"/>
<polygon fill="black" stroke="black" points="645.63,-159.5 635.63,-163 645.63,-166.5 645.63,-159.5"/>
</g>
<!-- PrestacionFichaComponent -->
<g id="node3" class="node">
<title>PrestacionFichaComponent</title>
<polygon fill="#ffffb3" stroke="black" points="750.25,-122 579.75,-122 579.75,-86 750.25,-86 750.25,-122"/>
<text text-anchor="middle" x="665" y="-99.8" font-family="Times,serif" font-size="14.00">PrestacionFichaComponent</text>
</g>
<!-- PrestacionFichaComponent&#45;&gt;PrestacionesModule -->
<g id="edge3" class="edge">
<title>PrestacionFichaComponent&#45;&gt;PrestacionesModule</title>
<path fill="none" stroke="black" d="M607.69,-122.11C607.69,-122.11 607.69,-140.99 607.69,-140.99"/>
<polygon fill="black" stroke="black" points="604.19,-140.99 607.69,-150.99 611.19,-140.99 604.19,-140.99"/>
</g>
<!-- PrestacionFormComponent -->
<g id="node4" class="node">
<title>PrestacionFormComponent</title>
<polygon fill="#ffffb3" stroke="black" points="561.98,-122 392.02,-122 392.02,-86 561.98,-86 561.98,-122"/>
<text text-anchor="middle" x="477" y="-99.8" font-family="Times,serif" font-size="14.00">PrestacionFormComponent</text>
</g>
<!-- PrestacionFormComponent&#45;&gt;PrestacionesModule -->
<g id="edge4" class="edge">
<title>PrestacionFormComponent&#45;&gt;PrestacionesModule</title>
<path fill="none" stroke="black" d="M534.11,-122.11C534.11,-122.11 534.11,-140.99 534.11,-140.99"/>
<polygon fill="black" stroke="black" points="530.61,-140.99 534.11,-150.99 537.61,-140.99 530.61,-140.99"/>
</g>
<!-- PrestacionesComponent -->
<g id="node5" class="node">
<title>PrestacionesComponent</title>
<polygon fill="#ffffb3" stroke="black" points="373.8,-122 222.2,-122 222.2,-86 373.8,-86 373.8,-122"/>
<text text-anchor="middle" x="298" y="-99.8" font-family="Times,serif" font-size="14.00">PrestacionesComponent</text>
</g>
<!-- PrestacionesComponent&#45;&gt;PrestacionesModule -->
<g id="edge5" class="edge">
<title>PrestacionesComponent&#45;&gt;PrestacionesModule</title>
<path fill="none" stroke="black" d="M298,-122.02C298,-139.37 298,-163 298,-163 298,-163 496.3,-163 496.3,-163"/>
<polygon fill="black" stroke="black" points="496.3,-166.5 506.3,-163 496.3,-159.5 496.3,-166.5"/>
</g>
<!-- PrestacionesRoutingModule -->
<g id="node7" class="node">
<title>PrestacionesRoutingModule</title>
<polygon fill="#8dd3c7" stroke="black" points="198.14,-122 195.14,-126 174.14,-126 171.14,-122 23.86,-122 23.86,-86 198.14,-86 198.14,-122"/>
<text text-anchor="middle" x="111" y="-99.8" font-family="Times,serif" font-size="14.00">PrestacionesRoutingModule</text>
</g>
<!-- PrestacionesRoutingModule&#45;&gt;PrestacionesModule -->
<g id="edge6" class="edge">
<title>PrestacionesRoutingModule&#45;&gt;PrestacionesModule</title>
<path fill="none" stroke="black" d="M111,-122.28C111,-143.32 111,-175 111,-175 111,-175 496.07,-175 496.07,-175"/>
<polygon fill="black" stroke="black" points="496.07,-178.5 506.07,-175 496.07,-171.5 496.07,-178.5"/>
</g>
</g>
</svg>
